<?xml version="1.0" encoding="utf-8"?>
<!-- Generator: Adobe Illustrator 24.2.3, SVG Export Plug-In . SVG Version: 6.00 Build 0)  -->
<svg version="1.1" id="Layer_1" xmlns="http://www.w3.org/2000/svg" xmlns:xlink="http://www.w3.org/1999/xlink" x="0px" y="0px"
	 viewBox="0 0 152.68 131.23" style="enable-background:new 0 0 152.68 131.23;" xml:space="preserve">
<style type="text/css">
	.st0{fill:none;stroke:#000000;stroke-width:7;stroke-miterlimit:10;}
	.st1{fill:none;stroke:#000000;stroke-width:3.5;stroke-miterlimit:10;}
</style>
<g>
	<polygon class="st0" points="40.68,5.53 6.81,65.4 40.68,125.7 110.3,125.7 145.87,65.62 109.96,5.53 	"/>
	<g>
		<path class="st1" d="M41.89,89.72V44.45h1.87c0,0,18.55,12.26,22.3,13.28l14.47-13.28h2.38v45.28"/>
		<path class="st1" d="M110.14,51.15c0,0,0.85-9.64-9.19-9.64c-9.81,0-10.36,8.88-10.38,14.02c0,0.25,0.03,0.49,0.1,0.72
			c2.35,7.86,16.58,12.29,19.49,18.76c1.82,4.06,0.49,17.8-14.86,14.07c-6.24-0.66-5.33-8.9-5.33-8.9"/>
	</g>
</g>
</svg>
